<svg id="Capa_1" enable-background="new 0 0 512 512" height="512" viewBox="0 0 512 512" width="512" xmlns="http://www.w3.org/2000/svg"><g><path d="m256 301h-196v196c0 8.291 6.709 15 15 15h181 181c8.291 0 15-6.709 15-15v-196z" fill="#ff9100"/><path d="m452 497v-196h-196v211h181c8.291 0 15-6.709 15-15z" fill="#ff641a"/><g><path d="m509.48 367.68-60-90c-2.783-4.175-7.471-6.68-12.48-6.68h-181-181c-5.01 0-9.697 2.505-12.48 6.68l-60 90c-3.062 4.6-3.354 10.518-.747 15.396s7.69 7.924 13.227 7.924h181c5.01 0 9.697-2.505 12.48-6.68l47.52-71.279 47.52 71.279c2.783 4.175 7.471 6.68 12.48 6.68h181c5.537 0 10.62-3.047 13.228-7.925s2.314-10.796-.748-15.395z" fill="#fed843"/><path d="m316 391h181c5.537 0 10.62-3.047 13.228-7.925s2.314-10.796-.747-15.396l-60-90c-2.783-4.175-7.471-6.68-12.48-6.68h-181.001v42.041l47.52 71.279c2.783 4.176 7.47 6.681 12.48 6.681z" fill="#ff9100"/><path d="m313.479 81.68-44.999-75.418c-2.783-4.175-7.631-6.262-12.48-6.262s-9.697 2.087-12.48 6.262l-44.999 75.418c-3.076 4.6-3.354 10.518-.747 15.396s7.69 7.925 13.228 7.925h14.998v121c0 8.284 6.716 15 15 15h15 15c8.284 0 15-6.716 15-15v-121.001h14.998c5.537 0 10.62-3.047 13.228-7.925s2.329-10.796-.747-15.395z" fill="#97de3d"/><path d="m286 226v-121h14.998c5.537 0 10.62-3.047 13.228-7.925s2.329-10.796-.747-15.396l-44.999-75.417c-2.783-4.175-7.631-6.262-12.48-6.262v241h15c8.284 0 15-6.716 15-15z" fill="#59c36a"/></g><path d="m163.479 141.68-44.999-75.418c-2.783-4.175-7.631-6.262-12.48-6.262s-9.697 2.087-12.48 6.262l-44.999 75.418c-3.076 4.6-3.354 10.518-.747 15.396s7.691 7.924 13.228 7.924h14.998v61c0 8.284 6.716 15 15 15h15 15c8.284 0 15-6.716 15-15v-61h14.998c5.537 0 10.62-3.047 13.228-7.925s2.329-10.796-.747-15.395z" fill="#97de3d"/><path d="m136 226v-61h14.998c5.537 0 10.62-3.047 13.228-7.925s2.329-10.796-.747-15.396l-44.999-75.417c-2.783-4.175-7.631-6.262-12.48-6.262v181h15c8.284 0 15-6.716 15-15z" fill="#59c36a"/><path d="m463.479 141.68-44.999-75.418c-2.783-4.175-7.631-6.262-12.48-6.262s-9.697 2.087-12.48 6.262l-44.998 75.417c-3.076 4.6-3.354 10.518-.747 15.396s7.69 7.925 13.228 7.925h14.997v61c0 8.284 6.716 15 15 15h15 15c8.284 0 15-6.716 15-15v-61h14.998c5.537 0 10.62-3.047 13.228-7.925s2.329-10.796-.747-15.395z" fill="#97de3d"/><path d="m436 226v-61h14.998c5.537 0 10.62-3.047 13.228-7.925s2.329-10.796-.747-15.396l-44.999-75.417c-2.783-4.175-7.631-6.262-12.48-6.262v181h15c8.284 0 15-6.716 15-15z" fill="#59c36a"/></g></svg>